<svg xmlns="http://www.w3.org/2000/svg" viewBox="0 0 512 512" role="img" aria-labelledby="title desc">
  <title id="title">Vehicle Maintenance Tracker</title>
  <desc id="desc">Navy rounded app icon with a white car and a teal maintenance wrench badge.</desc>
  <defs>
    <linearGradient id="bg" x1="0" y1="0" x2="1" y2="1">
      <stop offset="0" stop-color="#173a66"/>
      <stop offset="1" stop-color="#071a33"/>
    </linearGradient>
    <linearGradient id="accent" x1="0" y1="1" x2="1" y2="0">
      <stop offset="0" stop-color="#14b8a6"/>
      <stop offset="1" stop-color="#4ade80"/>
    </linearGradient>
  </defs>

  <rect x="20" y="20" width="472" height="472" rx="108" fill="url(#bg)"/>
  <rect x="20" y="20" width="472" height="472" rx="108" fill="none" stroke="#315789" stroke-width="4"/>

  <!-- car -->
  <path d="M111 325l42-105c10-26 34-43 62-43h82c28 0 52 17 62 43l42 105c12 8 20 23 20 39v34c0 13-10 23-23 23h-22v17c0 17-13 30-30 30h-19c-17 0-30-13-30-30v-17H215v17c0 17-13 30-30 30h-19c-17 0-30-13-30-30v-17h-22c-13 0-23-10-23-23v-34c0-16 8-31 20-39z" fill="#ffffff"/>
  <path d="M180 230c6-16 20-26 37-26h78c17 0 31 10 37 26l25 65H155l25-65z" fill="#173a66"/>
  <path d="M196 220h120l19 49H177l19-49z" fill="#244c7c"/>
  <rect x="150" y="333" width="72" height="26" rx="13" fill="#dbe7f4"/>
  <rect x="290" y="333" width="72" height="26" rx="13" fill="#dbe7f4"/>
  <circle cx="185" cy="346" r="10" fill="url(#accent)"/>
  <circle cx="327" cy="346" r="10" fill="url(#accent)"/>
  <rect x="220" y="375" width="72" height="10" rx="5" fill="#c4d2e1"/>

  <!-- maintenance badge -->
  <circle cx="382" cy="151" r="70" fill="url(#accent)" stroke="#071a33" stroke-width="10"/>
  <path d="M407 113c-13-8-30-7-42 2-13 10-18 27-13 42l-43 43c-7 7-7 18 0 25s18 7 25 0l43-43c15 5 32 0 42-13 9-12 10-29 2-42l-24 24-18-5-5-18 24-24c3 2 6 5 9 9z" fill="#ffffff"/>
  <circle cx="321" cy="213" r="7" fill="#173a66"/>
</svg>
